<?xml version="1.0" standalone="no"?><!DOCTYPE svg PUBLIC "-//W3C//DTD SVG 1.1//EN" "http://www.w3.org/Graphics/SVG/1.1/DTD/svg11.dtd"><svg t="1693039657815" class="icon" viewBox="0 0 1024 1024" version="1.1" xmlns="http://www.w3.org/2000/svg" p-id="3066" xmlns:xlink="http://www.w3.org/1999/xlink" width="260" height="260"><path d="M510.9 925.8c-110.5 0-214.5-43.1-292.6-121.2S97.1 622.5 97.1 512s43.1-214.5 121.2-292.6 182-121.2 292.6-121.2 214.5 43.1 292.6 121.2c78.1 78.1 121.2 182.1 121.2 292.6s-43.1 214.5-121.2 292.6-182.1 121.2-292.6 121.2z m0-782c-203 0-368.2 165.2-368.2 368.2s165.2 368.1 368.1 368.1S879 714.9 879 512 714 143.8 510.9 143.8z" p-id="3067"></path><path d="M249.8 780.8l-45.7-0.5c0-2.1 0.6-53.9 13.1-131.8 11.6-71.9 35.9-180.7 86.8-290.5 65.2-141.3 186.7-249.7 191.8-254.3l30.3 34.3c-1.5 1.4-119.7 107-180.6 239.2-92.8 201-95.7 401.7-95.7 403.6zM526.1 138L511 121l15.1 17z" p-id="3068"></path><path d="M882.8 479.1c-1.2-1.2-121.5-119.8-261.4-155.3-215.3-54.5-412.9-31.4-414.9-31.1l-5.5-45.4c8.4-1.1 207.8-24.5 431.6 32.1 152.2 38.5 277.2 162 282.4 167.2l-32.2 32.5zM635.7 768.3c-38.2 0-78.6-2.6-118.4-9.3-54.4-9.3-110.1-30.8-165.5-63.8C308 669 264 635.7 221.3 595.9c-72.3-67.4-116-129.4-117.8-132l37.5-26.2c0.5 0.6 43.1 61.2 112.2 125.5 62.7 58.3 160.8 132 271.8 150.9 144.2 24.7 303-11.4 304.6-11.9l10.4 44.5c-5.3 1.2-95.6 21.6-204.3 21.6z" p-id="3069"></path><path d="M464.7 914l-32.4-32.3c0.5-0.6 54.4-55.1 107.9-136.3 48.7-73.8 107.3-185.4 109.9-298.1 3.3-146.3-55.6-298.1-56.2-299.6l42.5-16.7c2.6 6.5 62.7 162 59.2 317.3-1.2 55.1-14.3 113.9-39 175.1-19.5 48.3-46 98-79 148C521.8 856.3 467 911.8 464.7 914z" p-id="3070"></path><path d="M252.3 800.3l-35.9-28.2c6.2-8.1 156.1-197.2 320.2-265.8 88.8-37.1 185.7-47.7 251.5-49.8 70.9-2.3 120.7 4 122.7 4.3l-5.8 45.4c-1.8-0.3-192.9-23.8-350.8 42.3-153.3 64.1-300.3 250-301.9 251.8z" p-id="3071"></path><path d="M448.4 252.7c0 31.8-25.9 57.7-57.7 57.7S333 284.5 333 252.7s25.9-57.7 57.7-57.7 57.7 25.9 57.7 57.7M306.9 585c0 31.8-25.9 57.7-57.7 57.7s-57.7-25.9-57.7-57.7 25.9-57.7 57.7-57.7c31.9 0 57.7 25.9 57.7 57.7M730.9 317.5c0 31.8-25.9 57.7-57.7 57.7s-57.7-25.9-57.7-57.7 25.9-57.7 57.7-57.7 57.7 25.9 57.7 57.7M628.9 735.8c0 31.8-25.9 57.7-57.7 57.7-31.8 0-57.7-25.9-57.7-57.7s25.9-57.7 57.7-57.7c31.8 0 57.7 25.8 57.7 57.7M404.4 666.3c0 31.8-25.9 57.7-57.7 57.7S289 698.2 289 666.3s25.9-57.7 57.7-57.7 57.7 25.9 57.7 57.7M730.9 484.9c0 31.8-25.9 57.7-57.7 57.7s-57.7-25.9-57.7-57.7 25.9-57.7 57.7-57.7 57.7 25.8 57.7 57.7" fill="#0000FF" p-id="3072"></path></svg>