<?xml version="1.0" standalone="no"?><!DOCTYPE svg PUBLIC "-//W3C//DTD SVG 1.1//EN" "http://www.w3.org/Graphics/SVG/1.1/DTD/svg11.dtd"><svg t="1693039698539" class="icon" viewBox="0 0 1024 1024" version="1.1" xmlns="http://www.w3.org/2000/svg" p-id="3555" xmlns:xlink="http://www.w3.org/1999/xlink" width="260" height="260"><path d="M463.8 457.6H196.4V191.4h267.3v266.3h0.1z m-232.3-35h197.2V226.5H231.5v196.1zM463.8 827.7H196.4V561.5h267.3v266.3h0.1z m-232.3-35.1h197.2V596.5H231.5v196.1z" p-id="3556"></path><path d="M744.5 507L513.9 373.7l133.7-231.4 230.6 133.1L744.5 507zM561.7 360.9L731.6 459l98.6-170.7-169.9-98.1-98.6 170.7z" fill="#0000FF" p-id="3557"></path><path d="M829.7 827.7H562.3V561.5h267.3v266.3h0.1z m-232.2-35.1h197.2V596.5H597.5v196.1z" p-id="3558"></path></svg>