<?xml version="1.0" standalone="no"?><!DOCTYPE svg PUBLIC "-//W3C//DTD SVG 1.1//EN" "http://www.w3.org/Graphics/SVG/1.1/DTD/svg11.dtd"><svg t="1693039678012" class="icon" viewBox="0 0 1024 1024" version="1.1" xmlns="http://www.w3.org/2000/svg" p-id="3393" xmlns:xlink="http://www.w3.org/1999/xlink" width="260" height="260"><path d="M796.3 832.9l-168.9-89.8-1.9-2.2-393.1-442.2 101.3-89.1 394.4 444.1 68.2 179.2zM647.7 717.2l87.5 46.5-35.3-93-369-415.4-52.5 46.2 369.3 415.7z" p-id="3394"></path><path d="M203.1 324.6l159.7-141.3 21.5 24.3-159.6 141.3-21.6-24.3z" p-id="3395"></path><path d="M216.2 203.2l24.3-21.6 65.6 73.8-24.3 21.6-65.6-73.8zM225.6 832.9l68-179.2L688 209.5l101.4 89.1-394.8 444.6-169 89.7z m96.3-162.1l-35.3 93 87.5-46.5 369.3-415.8-52.6-46.2-368.9 415.5zM637.4 207.7l21.5-24.3 159.7 141.3-21.5 24.3-159.7-141.3z" p-id="3396"></path><path d="M715.8 255.5l65.6-73.8 24.3 21.6-65.7 73.8-24.2-21.6z" p-id="3397"></path><path d="M511 266.3l-172 80.8s-18.1 118.2 0 173.2c21.8 66.4 172 204.1 172 204.1s150.6-137.1 172-204.1c17.9-56.2 0-173.6 0-173.6l-172-80.4z" fill="#0000FF" p-id="3398"></path></svg>