<?xml version="1.0" standalone="no"?><!DOCTYPE svg PUBLIC "-//W3C//DTD SVG 1.1//EN" "http://www.w3.org/Graphics/SVG/1.1/DTD/svg11.dtd"><svg t="1693040074906" class="icon" viewBox="0 0 1024 1024" version="1.1" xmlns="http://www.w3.org/2000/svg" p-id="3716" xmlns:xlink="http://www.w3.org/1999/xlink" width="260" height="260"><path d="M847.366827 456.20224c-18.333013 0.180907-33.041067 15.189333-32.866987 33.518933 0 0.518827 0.034133 1.05472 0.06144 1.583787v398.71488c-0.21504 19.725653-16.325973 35.57376-36.05504 35.474773h-112.172373v-238.848c0.13312-54.254933-43.758933-98.33472-98.020694-98.46784-0.959147-0.013653-1.92512 0.013653-2.894506 0.047787h-117.51424c-52.65408-1.62816-96.648533 39.75168-98.2528 92.40576-0.06144 2.000213-0.06144 4.007253 0.013653 6.014293v238.848H237.492907c-19.746133 0.098987-35.853653-15.73888-36.058454-35.474773V492.642987c0-18.131627-14.6944-32.812373-32.802133-32.812374-18.131627 0-32.822613 14.687573-32.822613 32.812374v396.793173c-0.3072 55.528107 44.438187 100.799147 99.966293 101.106347h178.182827v-303.13472c0.2048-19.73248 16.308907-35.57376 36.0448-35.4816h116.18304c19.739307-0.09216 35.853653 15.745707 36.05504 35.4816v303.13472h175.701333c56.159573 0.426667 102.027947-44.752213 102.44096-100.908374V491.30496c1.061547-18.302293-12.93312-34.000213-31.232-35.05152-0.60416-0.023893-1.191253-0.0512-1.785173-0.0512z" p-id="3717" fill="#cdcdcd"></path><path d="M994.64192 541.085013a62.993067 62.993067 0 0 1-31.860053-13.35296L513.338027 96.416427 93.648213 497.02912l-28.419413 26.525013a50.52416 50.52416 0 0 1-33.20832 16.960854 25.852587 25.852587 0 0 1-19.06688-8.00768A29.754027 29.754027 0 0 1 3.413333 511.136427a40.782507 40.782507 0 0 1 13.54752-28.419414L462.588587 56.920747a57.5488 57.5488 0 0 1 13.1584-12.20608 63.371947 63.371947 0 0 1 72.116906 0 64.512 64.512 0 0 1 12.77952 10.683733L1007.035733 482.7136a42.40384 42.40384 0 0 1 13.54752 29.190827 30.365013 30.365013 0 0 1-9.540266 21.940906 22.391467 22.391467 0 0 1-16.41472 7.441067v-0.201387h0.013653z" p-id="3718" fill="#cdcdcd"></path></svg>