<?xml version="1.0" standalone="no"?><!DOCTYPE svg PUBLIC "-//W3C//DTD SVG 1.1//EN" "http://www.w3.org/Graphics/SVG/1.1/DTD/svg11.dtd"><svg t="1693039815861" class="icon" viewBox="0 0 1024 1024" version="1.1" xmlns="http://www.w3.org/2000/svg" p-id="4645" xmlns:xlink="http://www.w3.org/1999/xlink" width="260" height="260"><path d="M991.078 575.465l-101.71 0c-10.154 57.873-33.486 111.084-66.409 157.07l72.873 72.873c12.488 12.488 12.488 32.725 0 45.212l-45.212 45.212c-12.488 12.488-32.725 12.488-45.212 0l-73.186-73.186c-46.069 32.52-98.801 56.3-156.757 66.076l0 102.356c0 17.654-14.316 31.97-31.97 31.97l-63.941 0c-17.654 0-31.97-14.316-31.97-31.97L447.584 888.722c-58.02-9.789-111.346-32.853-157.377-65.456l-72.566 72.566c-12.488 12.488-32.725 12.488-45.212 0l-45.212-45.212c-12.488-12.488-12.488-32.725 0-45.212l72.361-72.361c-32.859-46.031-56.082-99.434-65.897-157.581L31.97 575.466c-17.654 0-31.97-14.316-31.97-31.97l0-63.94c0-17.654 14.316-31.97 31.97-31.97l101.71 0c10.154-57.873 33.486-111.084 66.409-157.07l-72.873-72.873c-12.488-12.488-12.488-32.725 0-45.212l45.212-45.212c12.488-12.488 32.725-12.488 45.212 0l73.186 73.186c46.069-32.52 98.801-56.3 156.757-66.076L447.583 31.97C447.584 14.316 461.9 0 479.554 0l63.941 0c17.654 0 31.97 14.316 31.97 31.97l0 102.356c58.02 9.789 111.346 32.853 157.377 65.456l72.566-72.566c12.488-12.488 32.725-12.488 45.212 0l45.212 45.212c12.488 12.488 12.488 32.725 0 45.212l-72.362 72.361c32.859 46.031 56.082 99.434 65.897 157.581l101.71 0c17.654 0 31.97 14.316 31.97 31.97l0 63.94C1023.048 561.148 1008.732 575.465 991.078 575.465zM511.524 255.762c-141.251 0-255.762 114.511-255.762 255.762s114.511 255.762 255.762 255.762 255.762-114.511 255.762-255.762S652.775 255.762 511.524 255.762z" fill="#CCCCCC" p-id="4646"></path></svg>