<?xml version="1.0" standalone="no"?><!DOCTYPE svg PUBLIC "-//W3C//DTD SVG 1.1//EN" "http://www.w3.org/Graphics/SVG/1.1/DTD/svg11.dtd"><svg t="1710567329471" class="icon" viewBox="0 0 1026 1024" version="1.1" xmlns="http://www.w3.org/2000/svg" p-id="2632" xmlns:xlink="http://www.w3.org/1999/xlink" width="260.5078125" height="260"><path d="M509.039552 330.503343c-98.411357 0-178.476881 80.048127-178.476881 178.440042 0 98.393961 80.0645 178.442088 178.476881 178.442088 98.41238 0 178.475857-80.049151 178.475857-178.442088C687.515409 410.55147 607.451932 330.503343 509.039552 330.503343zM509.039552 637.394918c-70.841442 0-128.476093-57.624419-128.476093-128.451534 0-70.830185 57.634652-128.455627 128.476093-128.455627 70.842465 0 128.47507 57.625442 128.47507 128.455627C637.514622 579.771523 579.882017 637.394918 509.039552 637.394918zM898.636781 377.714598l-21.476127 0-2.503007-6.662747-0.116657-0.248663c-0.234337-0.493234-0.463558-0.99056-0.670266-1.517563l-0.038886-0.098237c-3.065825-7.992021-5.921873-14.897292-8.731872-21.109784l-2.966565-6.558369 15.201214-15.22168c22.563902-22.550599 34.987862-52.53654 34.987862-84.436064 0-31.900547-12.426007-61.893652-34.989909-84.457554L860.643468 140.712789c-22.561855-22.551622-52.55803-34.970466-84.466764-34.970466-31.906687 0-61.899792 12.418844-84.452437 34.966373l-15.21247 15.219633-6.566556-2.966565c-6.720052-3.038196-14.213723-6.108115-22.907733-9.385764l-6.741541-2.541893 0-21.61018c0-65.850777-53.584406-119.423927-119.448486-119.423927l-23.609721 0c-65.86408 0-119.448486 53.574173-119.448486 119.423927l0 21.61018-6.742565 2.541893c-8.66638 3.267417-16.156982 6.337335-22.900569 9.385764l-6.564509 2.965541-15.219633-15.216563c-22.554692-22.549575-52.546773-34.968419-84.451414-34.968419-31.905664 0-61.901839 12.418844-84.461647 34.968419l-16.695241 16.694217c-22.560832 22.561855-34.985816 52.555983-34.985816 84.45653 0 31.899524 12.424984 61.886489 34.989909 84.442204l15.20326 15.21861-2.972705 6.561439c-2.829442 6.248308-5.605671 12.955056-8.758478 21.167089-0.215918 0.553609-0.453325 1.070378-0.696872 1.581008l-0.112564 0.240477-2.512217 6.644327-21.459754 0c-65.86408 0-119.448486 53.573149-119.448486 119.422903l0 23.612791c0 65.846684 53.584406 119.419833 119.448486 119.419833l21.48329 0 2.498914 6.66991 0.110517 0.23536c0.240477 0.506537 0.473791 1.017166 0.712221 1.626034 3.070942 8.004301 5.928013 14.907525 8.734942 21.104667l2.972705 6.560416-15.208377 15.22475c-22.559808 22.550599-34.984792 52.537564-34.984792 84.438111s12.424984 61.892629 34.985816 84.453461l16.695241 16.693194c22.559808 22.550599 52.555983 34.970466 84.46267 34.970466 31.905664 0 61.897745-12.419867 84.451414-34.970466l15.220656-15.216563 6.564509 2.967588c6.752798 3.051499 14.241352 6.119371 22.895453 9.377578l6.746658 2.539846 0 21.620413c0 65.850777 53.584406 119.423927 119.448486 119.423927l23.609721 0c65.863057 0 119.448486-53.574173 119.448486-119.423927l0-21.620413 6.747681-2.539846c8.679683-3.26844 16.171308-6.333242 22.900569-9.377578l6.567579-2.967588 15.210423 15.216563c22.554692 22.550599 52.547797 34.970466 84.452437 34.970466 31.907711 0 61.904908-12.419867 84.466764-34.968419l16.691147-16.693194c22.563902-22.562878 34.988886-52.557006 34.988886-84.455507 0-31.900547-12.424984-61.887512-34.995025-84.444251l-15.195074-15.216563 2.966565-6.558369c2.825348-6.246261 5.681396-13.148461 8.756431-21.170159 0.213871-0.547469 0.448208-1.058099 0.689708-1.564635l0.106424-0.226151 2.486634-6.67912 21.500687 0c65.86408 0 119.448486-53.574173 119.448486-119.419833l0-23.612791C1018.084244 431.287747 964.500861 377.714598 898.636781 377.714598zM968.089596 520.744151c0 4.502547-0.460488 9.073656-1.354857 13.507642-0.336668 1.743714-0.828878 3.225461-1.223874 4.414543-0.121773 0.36532-0.24457 0.728594-0.356111 1.096984l-0.304945 1.104147c-0.49221 1.810229-1.051959 3.858888-1.940189 6.048763-0.919952 2.234901-2.006703 4.190439-2.964518 5.91778l-0.585331 1.058099c-0.168846 0.309038-0.327458 0.626263-0.48914 0.942465-0.479931 0.946558-1.074472 2.118244-1.889023 3.349281-1.89721 2.945075-4.042059 5.533017-5.89322 7.67889l-0.072655 0.081864c-0.073678 0.091074-0.145309 0.187265-0.218988 0.280386-0.338714 0.442068-0.803295 1.044796-1.417279 1.700735-2.39863 2.565429-5.101181 5.000897-8.318456 7.485485-0.275269 0.234337-0.553609 0.461511-0.849344 0.681522-10.193153 7.671727-22.422685 12.344143-35.33374 13.508665-0.483001 0.045025-0.959861 0.11154-1.436722 0.177032-1.309832 0.179079-2.938935 0.402159-4.803399 0.402159L839.941984 590.180594c-8.030907 32.412201-21.474081 64.188928-40.055275 94.675266l42.097794 42.071188c10.604522 10.601452 17.330714 24.24417 19.457144 39.496549 0.046049 0.335644 0.075725 0.663102 0.104377 1.032516 0.508583 4.069689 0.690732 7.726985 0.559748 11.099802-0.028653 0.915859-0.12382 1.704828-0.193405 2.28095-0.020466 0.162706-0.041956 0.324388-0.054235 0.465604-0.216941 2.874467-0.5137 6.230911-1.264806 9.581216-0.291642 1.346671-0.674359 2.537799-0.982374 3.498684-0.119727 0.372483-0.2415 0.74906-0.350994 1.127683 0 0-0.280386 0.959861-0.404206 1.385557-0.532119 1.840928-1.133823 3.928472-2.066055 6.110161-0.871857 2.089591-1.904373 3.919263-2.818185 5.53404-0.205685 0.363274-0.411369 0.728594-0.659009 1.172709-0.217964 0.38681-0.415462 0.781806-0.615007 1.175779-0.529049 1.040702-1.183965 2.333138-2.088568 3.682879-2.586918 3.866051-5.486968 7.419993-8.624425 10.56359l-16.71366 16.708544c-3.128247 3.113921-6.66684 6.005784-10.517541 8.592702l-0.106424 0.070608c-1.315972 0.860601-2.579755 1.50426-3.595898 2.02103-0.410346 0.206708-0.823761 0.414439-1.204431 0.626263l-0.953721 0.540306c-1.680269 0.955768-3.584642 2.042519-5.689582 2.917446-2.14178 0.909719-4.170996 1.49812-5.961782 2.01796-0.472767 0.137123-0.948605 0.275269-1.423419 0.417509l-0.220011 0.064468c-0.36839 0.104377-0.733711 0.222057-1.100054 0.339738-0.945535 0.302899-2.117221 0.679475-3.461845 0.961908-3.430122 0.75827-6.770194 1.076518-9.589402 1.288343l-0.112564 0.00614c-0.163729 0.01228-0.326435 0.033769-0.490164 0.053212-0.525979 0.059352-1.239224 0.138146-2.064009 0.166799-0.782829 0.033769-1.564635 0.051165-2.347464 0.051165-2.712785 0-5.626137-0.197498-8.904811-0.602727l-0.066515-0.008186c-0.313132-0.026606-0.627287-0.057305-0.940418-0.102331-15.190981-2.124384-28.829606-8.843412-39.446407-19.437701l-42.035372-42.023092c-30.510898 18.621103-62.311161 32.084743-94.746898 40.11258l0 58.544371c0 1.847068-0.220011 3.466961-0.396019 4.768607-0.064468 0.476861-0.132006 0.953721-0.176009 1.428535-1.171686 12.932544-5.829775 25.13547-13.475919 35.305087-0.160659 0.220011-0.327458 0.431835-0.506537 0.651846l-0.157589 0.201591c-2.52245 3.244904-4.989641 5.975085-7.53972 8.347109-0.685615 0.647753-1.305739 1.12973-1.763157 1.483794-0.102331 0.077771-0.204661 0.154519-0.305969 0.239454-2.303462 1.988284-4.838192 4.082992-7.711636 5.924943-1.170662 0.75827-2.288113 1.332345-3.186576 1.791809-0.340761 0.173962-0.682545 0.348947-1.037632 0.543376l-0.765433 0.425695c-1.804089 1.001817-3.850701 2.137687-6.160303 3.115967l-0.150426 0.061398c-2.110057 0.854461-4.14746 1.414209-5.945409 1.907443l-1.184989 0.329505c-0.426719 0.119727-0.846274 0.25992-1.26583 0.399089-1.124614 0.369414-2.52245 0.830925-4.143367 1.151219-4.52813 0.903579-9.095145 1.362021-13.574157 1.362021l-23.609721 0c-4.475941 0-9.04398-0.458441-13.57518-1.362021-1.614777-0.319272-3.00238-0.774643-4.115738-1.140986-0.425695-0.140193-0.850367-0.282433-1.309832-0.412392l-1.181919-0.326435c-1.792832-0.494257-3.825119-1.054005-5.930059-1.906419l-0.146333-0.061398c-2.315742-0.978281-4.367471-2.118244-6.175653-3.122107l-0.768503-0.427742c-0.336668-0.185218-0.678452-0.358157-1.019213-0.533143-0.901533-0.460488-2.023076-1.034563-3.149736-1.765203-3.027963-1.940189-5.587252-4.086062-7.725962-5.925966-0.102331-0.088004-0.209778-0.166799-0.316202-0.24764-0.467651-0.364297-1.103124-0.857531-1.802042-1.518586-2.549056-2.379187-5.009084-5.104251-7.518231-8.333806l-0.050142-0.065492c-0.149403-0.179079-0.38374-0.463558-0.650823-0.835018-7.631818-10.169617-12.277628-22.357194-13.43601-35.225269-0.044002-0.475837-0.11154-0.949628-0.176009-1.423419-0.178055-1.311879-0.399089-2.944052-0.399089-4.805446l0-58.546418c-32.450063-8.033977-64.249303-21.49557-94.744851-40.108486l-42.043558 42.029232c-10.616802 10.589173-24.254404 17.307178-39.420825 19.427468-0.314155 0.045025-0.623193 0.074701-0.970094 0.104377l-0.056282 0.00614c-3.276626 0.406253-6.188956 0.604774-8.905834 0.604774-0.783853 0-1.569752-0.017396-2.355651-0.051165-0.820692-0.028653-1.533936-0.107447-2.058892-0.168846-0.163729-0.019443-0.326435-0.038886-0.490164-0.051165l-0.107447-0.00614c-2.820232-0.211824-6.16235-0.530073-9.593496-1.288343-1.337461-0.282433-2.50096-0.655939-3.440355-0.956791-0.36839-0.115634-0.735757-0.237407-1.109264-0.341784l-0.249687-0.070608c-0.483001-0.149403-0.966001-0.287549-1.450025-0.427742-1.778506-0.515746-3.794419-1.102101-5.844102-1.974981-2.163269-0.899486-4.048199-1.971911-5.711072-2.920516l-0.99056-0.560772c-0.402159-0.226151-0.812505-0.431835-1.221828-0.638543-1.019213-0.51677-2.286066-1.160429-3.686972-2.081405-3.857864-2.584871-7.401574-5.480828-10.543124-8.615215l-16.703427-16.702404c-3.154853-3.160993-6.056949-6.715959-8.614192-10.550287-0.908696-1.356904-1.564635-2.648316-2.089591-3.686972-0.201591-0.394996-0.399089-0.791016-0.64673-1.230014l-0.587378-1.042749c-0.931209-1.641383-1.985214-3.498684-2.871397-5.625114-0.923022-2.171456-1.52268-4.246721-2.051729-6.079462-0.12382-0.428765-0.421602-1.443885-0.421602-1.443885-0.10847-0.384763-0.233314-0.765433-0.356111-1.144056-0.301875-0.939395-0.678452-2.111081-0.955768-3.38919-0.735757-3.316535-1.047866-6.593162-1.276063-9.630335-0.01228-0.166799-0.034792-0.333598-0.055259-0.500397-0.065492-0.557702-0.155543-1.315972-0.184195-2.199085-0.135076-3.396353 0.045025-7.028067 0.547469-11.060917 0.028653-0.402159 0.067538-0.811482 0.12996-1.227967 2.128477-15.180747 8.850575-28.801976 19.441794-39.388079l42.089607-42.071188c-18.580171-30.486338-32.021298-62.263066-40.050158-94.675266l-58.697867 0c-1.866511 0-3.492544-0.223081-4.798283-0.402159-0.475837-0.064468-0.951675-0.132006-1.400906-0.174985-12.95301-1.166569-25.182542-5.836939-35.369555-13.510712-0.26913-0.199545-0.529049-0.408299-0.807389-0.64673-3.174296-2.443655-5.907547-4.900613-8.353248-7.509021-0.626263-0.667196-1.107217-1.294482-1.426489-1.708921-0.060375-0.079818-0.118704-0.156566-0.180102-0.234337l-0.127913-0.147356c-1.852184-2.153036-3.997034-4.748141-5.885034-7.66661-0.792039-1.207501-1.375324-2.354628-1.846044-3.27765-0.165776-0.327458-0.330528-0.654916-0.529049-1.014096l-0.569982-1.034563c-0.959861-1.732457-2.047636-3.695159-2.988054-5.975085-0.880043-2.156106-1.442862-4.221138-1.940189-6.0416l-0.299829-1.087774c-0.11154-0.37453-0.23536-0.744967-0.35918-1.11745-0.390903-1.182942-0.877997-2.656503-1.196245-4.306072-0.909719-4.51892-1.37123-9.089006-1.37123-13.58439l0-23.606651c0-4.487198 0.461511-9.05626 1.355881-13.503549 0.335644-1.737574 0.825808-3.216251 1.218758-4.403287 0.124843-0.376577 0.25071-0.751107 0.363274-1.128707 0.110517-0.39295 0.217964-0.787946 0.326435-1.181919 0.488117-1.783623 1.041726-3.803629 1.914606-5.944386 0.923022-2.242064 2.007727-4.198625 2.964518-5.925966l0.590448-1.069355c0.174985-0.319272 0.338714-0.64673 0.50449-0.972141 0.472767-0.932232 1.060145-2.087545 1.855254-3.301186 1.856277-2.87242 3.90903-5.344728 5.853311-7.632841l0.146333-0.165776c0.070608-0.084934 0.137123-0.172939 0.204661-0.260943 0.325411-0.418532 0.808412-1.041726 1.445932-1.708921 2.437515-2.613524 5.170766-5.076622 8.351202-7.525394 0.255827-0.217964 0.517793-0.429789 0.791016-0.632403 10.17678-7.661494 22.401196-12.33084 35.358299-13.503549 0.48607-0.042979 0.966001-0.112564 1.444908-0.177032 1.295506-0.176009 2.908236-0.394996 4.759397-0.394996l58.69889 0c8.033977-32.425504 21.475104-64.202231 40.049135-94.675266l-42.091654-42.074258c-10.592242-10.595312-17.313318-24.216541-19.440771-39.392172-0.059352-0.404206-0.098237-0.794086-0.128937-1.218758-0.502443-4.052293-0.682545-7.676843-0.547469-11.069103 0.028653-0.88209 0.118704-1.642406 0.185218-2.201132 0.019443-0.165776 0.042979-0.331551 0.054235-0.490164 0.229221-3.042289 0.541329-6.314823 1.26583-9.583263 0.290619-1.343601 0.673335-2.536776 0.980327-3.495614 0.12075-0.376577 0.243547-0.753153 0.352017-1.134847 0 0 0.287549-0.976234 0.411369-1.406023 0.533143-1.845021 1.137916-3.936659 2.048659-6.072299 0.900509-2.146896 1.973958-4.037966 2.920516-5.708002l0.573051-1.014096c0.217964-0.384763 0.415462-0.782829 0.61603-1.178849 0.524956-1.037632 1.177825-2.328022 2.083451-3.678786 2.567475-3.843538 5.466502-7.393387 8.628518-10.56666l16.703427-16.702404c3.110851-3.102664 6.650467-5.995551 10.523681-8.599865l0.099261-0.066515c1.313925-0.860601 2.576685-1.502213 3.590781-2.016937 0.410346-0.208754 0.823761-0.415462 1.243317-0.649799l1.047866-0.592494c1.636267-0.929162 3.491521-1.982144 5.566786-2.851954 2.158153-0.916882 4.206812-1.508353 6.012947-2.030239 0.461511-0.132006 0.924045-0.26606 1.385557-0.405229l0.207731-0.060375c0.37146-0.103354 0.737804-0.223081 1.103124-0.340761 0.946558-0.302899 2.12029-0.679475 3.469008-0.961908 3.474125-0.76748 6.874571-1.078565 9.486048-1.25969 0.140193-0.01535 0.281409-0.033769 0.422625-0.051165 0.608867-0.075725 1.441838-0.179079 2.353604-0.208754 0.718361-0.025583 1.434675-0.038886 2.15099-0.038886 2.792603 0 5.67321 0.190335 8.79634 0.581238 0.309038 0.017396 0.789992 0.051165 1.366114 0.137123 15.156188 2.125407 28.76923 8.838296 39.379892 19.423375l42.035372 42.025139c30.492478-18.61701 62.292742-32.079626 94.744851-40.113603l0-58.545394c0-1.861394 0.221034-3.490497 0.399089-4.798283 0.064468-0.473791 0.132006-0.947582 0.172939-1.387603 1.162476-12.920264 5.817496-25.124214 13.46364-35.297924 0.193405-0.265036 0.393973-0.520863 0.61603-0.787946l0.061398-0.079818c2.529613-3.25309 4.993734-5.984295 7.531534-8.344039 0.692778-0.655939 1.324158-1.147126 1.789763-1.508353 0.10847-0.084934 0.218988-0.166799 0.279363-0.215918 2.320858-2.003634 4.868891-4.111644 7.714705-5.92699 1.172709-0.760317 2.294252-1.333368 3.194762-1.793856 0.340761-0.173962 0.683569-0.347924 1.013073-0.530073l0.64059-0.357134c1.870604-1.043772 3.990894-2.225691 6.383384-3.208065 2.156106-0.892323 4.227278-1.463328 6.054903-1.967818l1.11745-0.311085c0.430812-0.12382 0.853437-0.264013 1.276063-0.403183 1.12666-0.370437 2.529613-0.829901 4.167926-1.156336 4.519943-0.896416 9.085936-1.351787 13.571087-1.351787l23.609721 0c4.487198 0 9.052167 0.455371 13.570063 1.352811 1.64343 0.327458 3.058662 0.792039 4.196579 1.165546 0.416486 0.137123 0.832971 0.277316 1.227967 0.38988l1.144056 0.318248c1.825578 0.503467 3.89675 1.073448 6.028297 1.955538 2.367931 0.973164 4.443196 2.127454 6.272867 3.145643l0.76748 0.426719c0.336668 0.187265 0.679475 0.360204 1.02126 0.535189 0.89744 0.459464 2.01489 1.031493 3.124154 1.750877 2.943029 1.876744 5.480828 3.981684 7.734148 5.930059 0.105401 0.089028 0.215918 0.171915 0.325411 0.25685 0.459464 0.357134 1.084705 0.842181 1.769296 1.487887 2.539846 2.355651 5.01113 5.090948 7.553023 8.358365l0.094144 0.121773c0.198521 0.23843 0.391926 0.483001 0.579191 0.73985 7.641027 10.171664 12.299117 22.375613 13.467733 35.292807 0.044002 0.480954 0.11154 0.957815 0.176009 1.434675 0.176009 1.298576 0.396019 2.915399 0.396019 4.762467l0 58.546418c32.44904 8.033977 64.24828 21.496593 94.747921 40.113603l42.040489-42.031279c10.600429-10.579963 24.219611-17.295921 39.387056-19.420305 0.564865-0.083911 1.034563-0.116657 1.328251-0.13303 3.134387-0.39295 6.022157-0.583285 8.81783-0.583285 0.716314 0 1.431605 0.013303 2.096754 0.036839 0.961908 0.029676 1.793856 0.134053 2.400676 0.209778 0.14224 0.017396 0.285502 0.036839 0.427742 0.052189 2.614547 0.182149 6.021134 0.493234 9.500375 1.263783 1.349741 0.283456 2.527566 0.661056 3.477194 0.966001 0.36225 0.116657 0.726547 0.23536 1.092891 0.338714 0 0 1.083681 0.317225 1.534959 0.448208 1.819438 0.523933 3.8814 1.119497 5.998621 2.018983 2.146896 0.895393 4.01443 1.957585 5.662977 2.894933l1.01819 0.576121c0.406253 0.227174 0.820692 0.433882 1.232061 0.64366 1.013073 0.5137 2.27174 1.153266 3.581572 2.00875l0.122797 0.081864c3.861958 2.601244 7.398504 5.490038 10.524704 8.602935l16.71059 16.70752c3.123131 3.133364 6.019087 6.680143 8.602935 10.538007 0.906649 1.351787 1.555425 2.635013 2.076288 3.665483 0.200568 0.396019 0.397043 0.794086 0.617054 1.179872l0.64673 1.147126c0.929162 1.644453 1.983167 3.507894 2.828418 5.539156 0.941442 2.201132 1.549286 4.299933 2.084475 6.15314 0.121773 0.424672 0.406253 1.391696 0.406253 1.391696 0.10847 0.381693 0.231267 0.759293 0.353041 1.134847 0.305969 0.959861 0.687662 2.153036 0.960885 3.417843 0.768503 3.428076 1.065262 6.779404 1.281179 9.637498 0.013303 0.161682 0.035816 0.324388 0.055259 0.487094 0.070608 0.573051 0.164752 1.358951 0.191358 2.172479 0.13917 3.432169-0.044002 7.101745-0.557702 11.215436-0.023536 0.323365-0.054235 0.655939-0.10847 1.069355-2.12029 15.199167-8.845459 28.840862-19.452028 39.451524l-42.095747 42.072211c18.574031 30.470989 32.016181 62.243623 40.053228 94.674243l58.694797 0c1.850138 0 3.465938 0.218988 4.76349 0.394996 0.479931 0.064468 0.960885 0.134053 1.440815 0.177032 12.94073 1.163499 25.165146 5.831822 35.358299 13.501502 0.277316 0.204661 0.544399 0.422625 0.825808 0.661056 3.192715 2.461051 5.916756 4.919033 8.326643 7.507998 0.63138 0.664126 1.116427 1.287319 1.441838 1.705851 0.072655 0.093121 0.143263 0.186242 0.171915 0.224104l0.170892 0.195451c1.940189 2.28095 3.986801 4.747117 5.842055 7.616468 0.822738 1.245364 1.422396 2.431376 1.907443 3.388167 0.158612 0.316202 0.318248 0.632403 0.457418 0.8913l0.533143 0.959861c0.982374 1.76418 2.095731 3.761674 3.051499 6.090718 0.850367 2.095731 1.399883 4.101411 1.883907 5.871731 0.10847 0.400113 0.218988 0.799202 0.330528 1.196245 0.11154 0.37146 0.23536 0.73985 0.35918 1.110287 0.399089 1.194198 0.893346 2.681062 1.217734 4.357238 0.908696 4.51892 1.369184 9.086959 1.369184 13.58132L968.088573 520.744151z" fill="#2c2c2c" p-id="2633"></path></svg>