<?xml version="1.0" standalone="no"?><!DOCTYPE svg PUBLIC "-//W3C//DTD SVG 1.1//EN" "http://www.w3.org/Graphics/SVG/1.1/DTD/svg11.dtd"><svg t="1613722378358" class="icon" viewBox="0 0 1024 1024" version="1.1" xmlns="http://www.w3.org/2000/svg" p-id="1302" xmlns:xlink="http://www.w3.org/1999/xlink" width="200" height="200"><defs><style type="text/css"></style></defs><path d="M512 76.8a431.91808 431.91808 0 0 0-177.152 37.60128c-0.2304 0.09728-0.46592 0.1792-0.69632 0.27648l-0.512 0.2304-0.08704 0.03584A393.15456 393.15456 0 0 0 240.128 170.76224L513.76128 466.432A32.256 32.256 0 0 1 512 512a32.256 32.256 0 0 1-45.568-1.76128l-110.41792-119.296A197.47328 197.47328 0 1 0 512 314.50624h-0.2048a35.47648 35.47648 0 0 1-34.70848-35.1744c0.09728-30.42816 33.88928-29.34784 34.91328-29.34784a262.144 262.144 0 1 1-200.27392 93.13792L193.62304 215.51616c-3.34336 3.72736-6.84032 7.33184-10.112 11.1104-2.29888 2.64704-4.4544 5.4016-6.68672 8.09984-2.49856 3.02592-5.05856 6.00576-7.47008 9.09824-2.24256 2.87232-4.34176 5.84192-6.50752 8.76544-2.24768 3.03104-4.5568 6.01088-6.71744 9.09824s-4.19328 6.28224-6.27712 9.42592c-2.00192 3.0208-4.096 5.9904-6.00064 9.05216-2.048 3.29728-3.98848 6.68672-5.96992 10.0352-1.78176 3.01056-3.6352 5.97504-5.34528 9.02656-1.95584 3.49696-3.75296 7.08096-5.632 10.63424-1.56672 2.98496-3.21536 5.93408-4.7104 8.95488-1.83296 3.69664-3.49184 7.47008-5.21728 11.21792-1.36192 2.95936-2.81088 5.87776-4.096 8.86272-1.65888 3.81952-3.14368 7.71584-4.68992 11.58656-1.19808 2.99008-2.47808 5.9392-3.6096 8.95488-1.50016 4.00384-2.82624 8.07936-4.20864 12.12416-1.024 2.93888-2.0992 5.84192-3.04128 8.80128-1.32096 4.15232-2.4576 8.36608-3.65568 12.55424-0.83456 2.9184-1.76128 5.8112-2.56 8.75008-1.13152 4.29056-2.048 8.63744-3.072 12.96384-0.6656 2.88256-1.42848 5.73952-2.048 8.64256-0.9216 4.39808-1.64864 8.83712-2.432 13.26592-0.512 2.87744-1.12128 5.7344-1.57696 8.62208-0.73216 4.66432-1.2544 9.36448-1.83808 14.0544-0.3328 2.688-0.768 5.35552-1.024 8.04864-0.54272 5.22752-0.87552 10.48576-1.23392 15.73888-0.14848 2.19136-0.39936 4.36736-0.512 6.55872Q76.8 500.736 76.8 512a435.2 435.2 0 1 0 435.2-435.2z" fill="#1296db" p-id="1303"></path></svg>